HIERARCHY
ROOT Hips
{
  OFFSET 5.72205e-005 65.662 3.42586
  CHANNELS 6 Xposition Yposition Zposition Zrotation Xrotation Yrotation
  JOINT Chest
  {
    OFFSET 0 8.7983 -4.7612
    CHANNELS 6 Xposition Yposition Zposition Zrotation Xrotation Yrotation
    JOINT Chest2
    {
      OFFSET 0 8.0291 0.4195
      CHANNELS 6 Xposition Yposition Zposition Zrotation Xrotation Yrotation
      JOINT Chest3
      {
        OFFSET 0 9.9351 -2.2114
        CHANNELS 6 Xposition Yposition Zposition Zrotation Xrotation Yrotation
        JOINT Neck
        {
          OFFSET 0 22.3885 -0.4656
          CHANNELS 6 Xposition Yposition Zposition Zrotation Xrotation Yrotation
          JOINT Head
          {
            OFFSET -0.0001 12.643 3.4389
            CHANNELS 6 Xposition Yposition Zposition Zrotation Xrotation Yrotation
            End Site
            {
              OFFSET 0.0001 17.6655 0.5274
            }
          }
        }
        JOINT LeftCollar
        {
          OFFSET 2.2603 21.606 7.4023
          CHANNELS 6 Xposition Yposition Zposition Zrotation Xrotation Yrotation
          JOINT LeftShoulder
          {
            OFFSET 13.5163 -1.1332 -5.0146
            CHANNELS 6 Xposition Yposition Zposition Zrotation Xrotation Yrotation
            JOINT LeftElbow
            {
              OFFSET -0.0995 -28.05 -0.2431
              CHANNELS 6 Xposition Yposition Zposition Zrotation Xrotation Yrotation
              JOINT LeftWrist
              {
                OFFSET 0.0679 -23.3996 -0.1402
                CHANNELS 6 Xposition Yposition Zposition Zrotation Xrotation Yrotation
                JOINT LeftFinger1
                {
                  OFFSET 0.7932 -9.069 2.5189
                  CHANNELS 6 Xposition Yposition Zposition Zrotation Xrotation Yrotation
                  JOINT LeftFinger11
                  {
                    OFFSET -0.8272 -3.3923 0.5977
                    CHANNELS 6 Xposition Yposition Zposition Zrotation Xrotation Yrotation
                    JOINT LeftFinger12
                    {
                      OFFSET -0.5649 -2.3158 0.4082
                      CHANNELS 6 Xposition Yposition Zposition Zrotation Xrotation Yrotation
                      End Site
                      {
                        OFFSET -0.4919 -1.6479 0.2673
                      }
                    }
                  }
                }
                JOINT LeftFinger2
                {
                  OFFSET 0.9159 -9.2044 0.2193
                  CHANNELS 6 Xposition Yposition Zposition Zrotation Xrotation Yrotation
                  JOINT LeftFinger21
                  {
                    OFFSET 0.0117 -4.1944 -0.0248
                    CHANNELS 6 Xposition Yposition Zposition Zrotation Xrotation Yrotation
                    JOINT LeftFinger22
                    {
                      OFFSET 0.0071 -2.3249 -0.0142
                      CHANNELS 6 Xposition Yposition Zposition Zrotation Xrotation Yrotation
                      End Site
                      {
                        OFFSET -0.1475 -2.0882 0.0028
                      }
                    }
                  }
                }
                JOINT LeftFinger3
                {
                  OFFSET 0.6113 -8.7231 -2.0637
                  CHANNELS 6 Xposition Yposition Zposition Zrotation Xrotation Yrotation
                  JOINT LeftFinger31
                  {
                    OFFSET -0.1927 -3.8059 -0.2383
                    CHANNELS 6 Xposition Yposition Zposition Zrotation Xrotation Yrotation
                    JOINT LeftFinger32
                    {
                      OFFSET -0.1091 -2.1688 -0.1362
                      CHANNELS 6 Xposition Yposition Zposition Zrotation Xrotation Yrotation
                      End Site
                      {
                        OFFSET -0.2358 -1.9176 -0.0906
                      }
                    }
                  }
                }
                JOINT LeftFinger4
                {
                  OFFSET -0.6151 -8.0947 -3.5641
                  CHANNELS 6 Xposition Yposition Zposition Zrotation Xrotation Yrotation
                  JOINT LeftFinger41
                  {
                    OFFSET -0.4882 -2.341 -0.6462
                    CHANNELS 6 Xposition Yposition Zposition Zrotation Xrotation Yrotation
                    JOINT LeftFinger42
                    {
                      OFFSET -0.3575 -1.7167 -0.4742
                      CHANNELS 6 Xposition Yposition Zposition Zrotation Xrotation Yrotation
                      End Site
                      {
                        OFFSET -0.4187 -1.5237 -0.3496
                      }
                    }
                  }
                }
                JOINT LeftFinger0
                {
                  OFFSET -1.42 -1.8761 1.4223
                  CHANNELS 6 Xposition Yposition Zposition Zrotation Xrotation Yrotation
                  JOINT LeftFinger01
                  {
                    OFFSET -1.1471 -3.4929 2.6334
                    CHANNELS 6 Xposition Yposition Zposition Zrotation Xrotation Yrotation
                    JOINT LeftFinger02
                    {
                      OFFSET -0.823 -2.3 1.6571
                      CHANNELS 6 Xposition Yposition Zposition Zrotation Xrotation Yrotation
                      End Site
                      {
                        OFFSET -0.5822 -1.6914 1.1582
                      }
                    }
                  }
                }
              }
            }
          }
        }
        JOINT RightCollar
        {
          OFFSET -2.2603 21.606 7.4023
          CHANNELS 6 Xposition Yposition Zposition Zrotation Xrotation Yrotation
          JOINT RightShoulder
          {
            OFFSET -13.5187 -1.1334 -5.0155
            CHANNELS 6 Xposition Yposition Zposition Zrotation Xrotation Yrotation
            JOINT RightElbow
            {
              OFFSET 0.0994 -28.0499 -0.2431
              CHANNELS 6 Xposition Yposition Zposition Zrotation Xrotation Yrotation
              JOINT RightWrist
              {
                OFFSET -0.0679 -23.3996 -0.1402
                CHANNELS 6 Xposition Yposition Zposition Zrotation Xrotation Yrotation
                JOINT RightFinger1
                {
                  OFFSET -0.7932 -9.0691 2.5189
                  CHANNELS 6 Xposition Yposition Zposition Zrotation Xrotation Yrotation
                  JOINT RightFinger11
                  {
                    OFFSET 0.8272 -3.3923 0.5977
                    CHANNELS 6 Xposition Yposition Zposition Zrotation Xrotation Yrotation
                    JOINT RightFinger12
                    {
                      OFFSET 0.565 -2.3158 0.4082
                      CHANNELS 6 Xposition Yposition Zposition Zrotation Xrotation Yrotation
                      End Site
                      {
                        OFFSET 0.4919 -1.6479 0.2673
                      }
                    }
                  }
                }
                JOINT RightFinger2
                {
                  OFFSET -0.916 -9.2044 0.2193
                  CHANNELS 6 Xposition Yposition Zposition Zrotation Xrotation Yrotation
                  JOINT RightFinger21
                  {
                    OFFSET -0.0117 -4.1944 -0.0248
                    CHANNELS 6 Xposition Yposition Zposition Zrotation Xrotation Yrotation
                    JOINT RightFinger22
                    {
                      OFFSET -0.0071 -2.3249 -0.0142
                      CHANNELS 6 Xposition Yposition Zposition Zrotation Xrotation Yrotation
                      End Site
                      {
                        OFFSET 0.1475 -2.0882 0.0028
                      }
                    }
                  }
                }
                JOINT RightFinger3
                {
                  OFFSET -0.6113 -8.7231 -2.0637
                  CHANNELS 6 Xposition Yposition Zposition Zrotation Xrotation Yrotation
                  JOINT RightFinger31
                  {
                    OFFSET 0.1927 -3.8059 -0.2383
                    CHANNELS 6 Xposition Yposition Zposition Zrotation Xrotation Yrotation
                    JOINT RightFinger32
                    {
                      OFFSET 0.1091 -2.1688 -0.1362
                      CHANNELS 6 Xposition Yposition Zposition Zrotation Xrotation Yrotation
                      End Site
                      {
                        OFFSET 0.2358 -1.9176 -0.0906
                      }
                    }
                  }
                }
                JOINT RightFinger4
                {
                  OFFSET 0.6151 -8.0947 -3.564
                  CHANNELS 6 Xposition Yposition Zposition Zrotation Xrotation Yrotation
                  JOINT RightFinger41
                  {
                    OFFSET 0.4882 -2.341 -0.6462
                    CHANNELS 6 Xposition Yposition Zposition Zrotation Xrotation Yrotation
                    JOINT RightFinger42
                    {
                      OFFSET 0.3574 -1.7166 -0.4742
                      CHANNELS 6 Xposition Yposition Zposition Zrotation Xrotation Yrotation
                      End Site
                      {
                        OFFSET 0.4187 -1.5237 -0.3496
                      }
                    }
                  }
                }
                JOINT RightFinger0
                {
                  OFFSET 1.4199 -1.8761 1.4221
                  CHANNELS 6 Xposition Yposition Zposition Zrotation Xrotation Yrotation
                  JOINT RightFinger01
                  {
                    OFFSET 1.1472 -3.4929 2.6336
                    CHANNELS 6 Xposition Yposition Zposition Zrotation Xrotation Yrotation
                    JOINT RightFinger02
                    {
                      OFFSET 0.8229 -2.3 1.6571
                      CHANNELS 6 Xposition Yposition Zposition Zrotation Xrotation Yrotation
                      End Site
                      {
                        OFFSET 0.5822 -1.6914 1.1582
                      }
                    }
                  }
                }
              }
            }
          }
        }
      }
    }
  }
  JOINT RightHip
  {
    OFFSET -9.412 3.9771 -0.7758
    CHANNELS 6 Xposition Yposition Zposition Zrotation Xrotation Yrotation
    JOINT RightKnee
    {
      OFFSET -0.7531 -40.938 0
      CHANNELS 6 Xposition Yposition Zposition Zrotation Xrotation Yrotation
      JOINT RightAnkle
      {
        OFFSET 0 -40.1986 0
        CHANNELS 6 Xposition Yposition Zposition Zrotation Xrotation Yrotation
        JOINT RightToe
        {
          OFFSET 0 -4.4182 9.239
          CHANNELS 6 Xposition Yposition Zposition Zrotation Xrotation Yrotation
          End Site
          {
            OFFSET 0 0 6.1981
          }
        }
      }
    }
  }
  JOINT LeftHip
  {
    OFFSET 9.4119 3.9773 -0.7758
    CHANNELS 6 Xposition Yposition Zposition Zrotation Xrotation Yrotation
    JOINT LeftKnee
    {
      OFFSET 0.7532 -40.9383 0
      CHANNELS 6 Xposition Yposition Zposition Zrotation Xrotation Yrotation
      JOINT LeftAnkle
      {
        OFFSET 0 -40.1986 0
        CHANNELS 6 Xposition Yposition Zposition Zrotation Xrotation Yrotation
        JOINT LeftToe
        {
          OFFSET 0 -4.4182 9.239
          CHANNELS 6 Xposition Yposition Zposition Zrotation Xrotation Yrotation
          End Site
          {
            OFFSET 0 0 6.1981
          }
        }
      }
    }
  }
}
MOTION
Frames:	4
Frame Time:	0.0333333
5.72205e-005 65.662 3.42586 0 0 -0 0 8.7983 -4.7612 0 0 -0 0 8.0291 0.4195 0 0 -0 0 9.9351 -2.2114 0 0 -0 0 22.3885 -0.4656 0 0 -0 -0.0001 12.643 3.4389 0 0 -0 2.2603 21.606 7.4023 0 0 -12.5014 13.5163 -1.1332 -5.0146 88.1196 14.2451 10.6914 -0.0995 -28.05 -0.2431 -0.00160068 -0.00239207 0.000740045 0.0679 -23.3996 -0.1402 -8.4365e-005 7.00714e-005 -9.52055e-007 0.7932 -9.069 2.5189 9.93923e-017 -1.98785e-016 -1.59028e-015 -0.8272 -3.3923 0.5977 9.93923e-017 -5.96354e-016 -1.59028e-015 -0.5649 -2.3158 0.4082 -9.93923e-017 -5.96354e-016 -1.59028e-015 0.9159 -9.2044 0.2193 9.93923e-017 -1.98785e-016 -1.59028e-015 0.0117 -4.1944 -0.0248 -0.0128176 0.00232552 8.52707e-005 0.0071 -2.3249 -0.0142 9.93923e-017 5.96354e-016 -0 0.6113 -8.7231 -2.0637 9.93923e-017 -1.98785e-016 -1.59028e-015 -0.1927 -3.8059 -0.2383 -0.0160551 0.00299681 0.000857156 -0.1091 -2.1688 -0.1362 -2.48481e-016 0 3.18055e-015 -0.6151 -8.0947 -3.5641 9.93923e-017 -1.98785e-016 -1.59028e-015 -0.4882 -2.341 -0.6462 -0.0125865 0.0031206 0.00282719 -0.3575 -1.7167 -0.4742 0 1.98785e-016 -0 -1.42 -1.8761 1.4223 9.93923e-017 -1.98785e-016 -1.59028e-015 -1.1471 -3.4929 2.6334 9.93923e-017 -5.96354e-016 -1.59028e-015 -0.823 -2.3 1.6571 -9.93923e-017 -5.96354e-016 -1.59028e-015 -2.2603 21.606 7.4023 -0.865644 0.16582 7.03859 -13.5187 -1.1334 -5.0155 -88.0329 10.2057 -10.5567 0.0994 -28.0499 -0.2431 0.0015593 -0.00248883 -0.000788628 -0.0679 -23.3996 -0.1402 7.87605e-005 4.10553e-005 1.24965e-005 -0.7932 -9.0691 2.5189 -3.97569e-016 -7.95139e-016 3.18055e-015 0.8272 -3.3923 0.5977 -1.98785e-016 -3.97569e-016 3.18055e-015 0.565 -2.3158 0.4082 -1.98785e-016 0 3.18055e-015 -0.916 -9.2044 0.2193 -3.97569e-016 -7.95139e-016 3.18055e-015 -0.0117 -4.1944 -0.0248 0.0129473 0.00231697 -8.70038e-005 -0.0071 -2.3249 -0.0142 9.93923e-017 -7.95139e-016 1.59028e-015 -0.6113 -8.7231 -2.0637 -3.97569e-016 -7.95139e-016 3.18055e-015 0.1927 -3.8059 -0.2383 0.0163314 0.00303369 -0.000872333 0.1091 -2.1688 -0.1362 3.97569e-016 7.95139e-016 -3.18055e-015 0.6151 -8.0947 -3.564 -3.97569e-016 -7.95139e-016 3.18055e-015 0.4882 -2.341 -0.6462 0.0145763 0.00367772 -0.00326275 0.3574 -1.7166 -0.4742 9.93923e-017 -3.97569e-016 -0 1.4199 -1.8761 1.4221 -3.97569e-016 -7.95139e-016 3.18055e-015 1.1472 -3.4929 2.6336 -1.98785e-016 -3.97569e-016 3.18055e-015 0.8229 -2.3 1.6571 -1.98785e-016 0 3.18055e-015 -9.412 3.9771 -0.7758 3.42482 1.32465 -0.0626183 -0.7531 -40.938 0 0.000117508 0.717283 0.000978199 0 -40.1986 0 -3.4257 -2.04197 -0.0604716 8.88178e-016 -4.4182 9.239 6.47761e-025 0 -0 9.4119 3.9773 -0.7758 -3.42483 1.34017 0.0627307 0.7532 -40.9383 -2.22045e-016 -0.000193936 0.682302 -0.0013703 -8.88179e-016 -40.1986 0 3.42574 -2.02253 0.0595886 -8.88178e-016 -4.4182 9.239 -8.45714e-024 0 -7.40531e-025 
-25.7042 21.9535 13.4771 64.8724 -11.4386 71.9871 -1.77636e-015 8.7983 -4.7612 -0.439444 7.4676 -0.0782446 3.55271e-015 8.0291 0.4195 -0.879846 14.9357 -0.0994504 -3.55271e-015 9.9351 -2.2114 -0.87985 14.9357 -0.0994553 0 22.3885 -0.4656 -4.10521e-006 11.8988 1.48387e-006 -0.0001 12.643 3.4389 -1.24176e-006 8.22117 8.69938e-006 2.2603 21.606 7.4023 5.87417 7.57803 -43.6469 13.5163 -1.1332 -5.0146 52.4306 43.6599 22.7978 -0.0995 -28.05 -0.2431 72.154 -46.35 80.3085 0.0679 -23.3996 -0.1402 1.69606 12.3063 3.00343 0.7932 -9.069 2.5189 -7.95139e-015 -6.36111e-015 -3.18055e-015 -0.8272 -3.3923 0.5977 2.13434e-006 -2.79319e-007 -5.92716e-007 -0.5649 -2.3158 0.4082 -7.95139e-015 3.18055e-015 9.54166e-015 0.9159 -9.2044 0.2193 -7.95139e-015 -6.36111e-015 -3.18055e-015 0.0117 -4.1944 -0.0248 -0.0128295 0.00232765 8.65146e-005 0.0071 -2.3249 -0.0142 -1.05934e-030 -6.36111e-015 -9.54166e-015 0.6113 -8.7231 -2.0637 -7.95139e-015 -6.36111e-015 -3.18055e-015 -0.1927 -3.8059 -0.2383 -0.0160185 0.00299337 0.000858617 -0.1091 -2.1688 -0.1362 1.17746e-006 -7.03331e-007 9.89503e-007 -0.6151 -8.0947 -3.5641 -7.95139e-015 -6.36111e-015 -3.18055e-015 -0.4882 -2.341 -0.6462 -0.0124893 0.00309792 0.00280504 -0.3575 -1.7167 -0.4742 9.54166e-015 -1.59028e-014 -1.27222e-014 -1.42 -1.8761 1.4223 -7.95139e-015 -6.36111e-015 -3.18055e-015 -1.1471 -3.4929 2.6334 2.13434e-006 -2.79319e-007 -5.92716e-007 -0.823 -2.3 1.6571 -7.95139e-015 3.18055e-015 9.54166e-015 -2.2603 21.606 7.4023 4.25957 14.8427 27.8894 -13.5187 -1.1334 -5.0155 -43.7265 40.2854 -26.8439 0.0994 -28.0499 -0.2431 2.00953 -59.8944 -5.5656 -0.0679 -23.3996 -0.1402 8.29667 -4.94213 -3.29112 -0.7932 -9.06911 2.5189 -6.36111e-015 2.38542e-015 -1.15295e-014 0.8272 -3.3923 0.5977 9.5346e-007 3.29168e-006 2.57291e-006 0.565 -2.3158 0.4082 -3.18055e-015 5.56597e-015 1.23246e-014 -0.916 -9.20441 0.2193 -6.36111e-015 2.38542e-015 -1.15295e-014 -0.0117 -4.1944 -0.0248 0.0129167 0.00230331 -8.00674e-005 -0.0071 -2.3249 -0.0142 -2.64931e-006 9.3425e-006 -4.87318e-006 -0.6113 -8.7231 -2.0637 -6.36111e-015 2.38542e-015 -1.15295e-014 0.1927 -3.8059 -0.2383 0.0162977 0.00302748 -0.000868045 0.1091 -2.1688 -0.1362 5.67907e-006 1.47329e-006 1.07507e-006 0.6151 -8.0947 -3.564 -6.36111e-015 2.38542e-015 -1.15295e-014 0.4882 -2.341 -0.6462 0.0147108 0.00371368 -0.00328655 0.3574 -1.7166 -0.4742 -6.9054e-006 -1.82749e-006 -4.403e-007 1.4199 -1.8761 1.4221 -6.36111e-015 2.38542e-015 -1.15295e-014 1.1472 -3.4929 2.6336 9.5346e-007 3.29168e-006 2.57291e-006 0.8229 -2.3 1.6571 -3.18055e-015 5.56597e-015 1.23246e-014 -9.412 3.9771 -0.7758 -20.177 -28.942 -42.5046 -0.7531 -40.938 0 -44.217 58.5067 68.2991 -7.10543e-015 -40.1986 3.55271e-015 10.343 3.7991 -23.7606 -3.55271e-015 -4.4182 9.239 -8.82781e-032 1.59028e-015 3.18055e-015 9.4119 3.9773 -0.7758 0.0861247 0.666877 -0.896233 0.7532 -40.9383 1.77636e-015 -1.07133 1.11863 1.03831 8.88179e-016 -40.1986 -1.77636e-015 -10.4685 4.72717 22.4769 -3.55271e-015 -4.4182 9.239 9.30229e-007 -2.34536e-006 -1.38175e-006 
-42.237 3.72681 13.865 96.2913 7.21454 96.5134 1.77636e-015 8.7983 -4.7612 -0.608003 10.7659 -0.188505 -1.77636e-015 8.0291 0.4195 -1.21226 21.5333 -0.265479 -3.55271e-015 9.9351 -2.2114 -1.21227 21.5333 -0.265483 0 22.3885 -0.4656 1.61658e-005 17.0094 1.3257e-005 -0.0001 12.643 3.4389 -9.98104e-007 11.5577 -1.86151e-005 2.2603 21.606 7.4023 10.8384 9.17892 -57.9017 13.5163 -1.1332 -5.0146 31.9829 55.2909 31.2387 -0.0995 -28.05 -0.2431 115.39 -62.0419 124.682 0.0679 -23.3996 -0.1402 2.40416 17.9244 4.05409 0.7932 -9.069 2.5189 3.18055e-015 3.18055e-015 -0 -0.8272 -3.3923 0.5977 -3.73624e-007 3.00188e-006 -9.63771e-006 -0.5649 -2.3158 0.4082 6.36111e-015 9.54166e-015 -0 0.9159 -9.2044 0.2193 3.18055e-015 3.18055e-015 -0 0.0117 -4.1944 -0.0248 -0.0128218 0.00232942 7.60266e-005 0.0071 -2.3249 -0.0142 5.97983e-006 -2.2561e-006 4.65921e-006 0.6113 -8.7231 -2.0637 3.18055e-015 3.18055e-015 -0 -0.1927 -3.8059 -0.2383 -0.0160777 0.00299963 0.000850832 -0.1091 -2.1688 -0.1362 1.76556e-031 3.18055e-015 -3.18055e-015 -0.6151 -8.0947 -3.5641 3.18055e-015 3.18055e-015 -0 -0.4882 -2.341 -0.6462 -0.0125686 0.00312253 0.00281544 -0.3575 -1.7167 -0.4742 -3.18055e-015 0 -3.18055e-015 -1.42 -1.8761 1.4223 3.18055e-015 3.18055e-015 -0 -1.1471 -3.4929 2.6334 -3.73624e-007 3.00188e-006 -9.63771e-006 -0.823 -2.3 1.6571 6.36111e-015 9.54166e-015 -0 -2.2603 21.606 7.4023 3.05321 19.905 38.1143 -13.5187 -1.1334 -5.0155 -20.9558 52.6302 -35.9331 0.0994 -28.0499 -0.2431 61.7386 -79.7976 52.2919 -0.0679 -23.3996 -0.1402 12.2075 -7.00203 -4.66116 -0.7932 -9.0691 2.5189 3.97569e-016 4.37326e-015 3.18055e-015 0.8272 -3.3923 0.5977 1.19271e-015 5.96354e-015 1.27222e-014 0.565 -2.3158 0.4082 -1.98785e-015 4.37326e-015 3.18055e-015 -0.916 -9.2044 0.2193 3.97569e-016 4.37326e-015 3.18055e-015 -0.0117 -4.1944 -0.0248 0.0129694 0.00231903 -9.63705e-005 -0.0071 -2.3249 -0.0142 9.15231e-007 4.60656e-006 -1.02967e-006 -0.6113 -8.7231 -2.0637 3.97569e-016 4.37326e-015 3.18055e-015 0.1927 -3.8059 -0.2383 0.0162789 0.00302664 -0.000868273 0.1091 -2.1688 -0.1362 -1.59028e-015 3.97569e-016 9.54166e-015 0.6151 -8.0947 -3.564 3.97569e-016 4.37326e-015 3.18055e-015 0.4882 -2.341 -0.6462 0.0145497 0.00366547 -0.00326285 0.3574 -1.7166 -0.4742 -5.56597e-015 -1.19271e-014 -3.18055e-015 1.4199 -1.8761 1.4221 3.97569e-016 4.37326e-015 3.18055e-015 1.1472 -3.4929 2.6336 1.19271e-015 5.96354e-015 1.27222e-014 0.8229 -2.3 1.6571 -1.98785e-015 4.37326e-015 3.18055e-015 -9.412 3.9771 -0.7758 -43.3133 -30.6996 -65.9494 -0.7531 -40.938 0 -91.2947 44.1559 114.261 7.10543e-015 -40.1986 -5.32907e-015 19.4814 4.29981 -36.2835 0 -4.4182 9.239 -2.55631e-006 3.73292e-006 1.27632e-006 9.4119 3.9773 -0.7758 1.82038 -1.38505 -1.31343 0.7532 -40.9383 0 -1.52768 5.09491 1.22572 0 -40.1986 8.88178e-016 -18.9941 4.75701 32.0948 -1.77636e-015 -4.4182 9.239 -1.88995e-006 -4.18911e-006 -7.25195e-006 
-38.1871 7.96886 13.9076 89.9984 1.99554 92.0096 0 8.7983 -4.7612 -0.575871 9.89491 -0.158406 0 8.0291 0.4195 -1.14987 19.7912 -0.219079 0 9.9351 -2.2114 -1.14986 19.7912 -0.219085 0 22.3885 -0.4656 1.54896e-005 15.3321 -2.42227e-006 -0.0001 12.643 3.4389 2.48434e-006 10.0093 1.76897e-005 2.2603 21.606 7.4023 9.25916 9.24213 -54.6226 13.5163 -1.1332 -5.0146 37.3582 52.7009 28.7124 -0.0995 -28.05 -0.2431 102.979 -59.9736 112.413 0.0679 -23.3996 -0.1402 2.05975 16.859 3.48793 0.7932 -9.06901 2.5189 5.24909e-007 -3.78283e-006 -3.64806e-006 -0.8272 -3.3923 0.5977 1.34791e-005 1.47241e-006 9.77685e-006 -0.5649 -2.3158 0.4082 2.9104e-006 -6.27132e-006 -3.96722e-006 0.9159 -9.20441 0.2193 5.24909e-007 -3.78283e-006 -3.64806e-006 0.0117 -4.1944 -0.0248 -0.0127771 0.00232236 9.23317e-005 0.0071 -2.3249 -0.0142 -3.42688e-006 -5.21003e-006 1.76185e-007 0.6113 -8.7231 -2.0637 5.24909e-007 -3.78283e-006 -3.64806e-006 -0.1927 -3.8059 -0.2383 -0.0160447 0.00299048 0.000871343 -0.1091 -2.1688 -0.1362 3.42668e-006 7.16832e-007 -1.76099e-007 -0.6151 -8.0947 -3.5641 5.24909e-007 -3.78283e-006 -3.64806e-006 -0.4882 -2.341 -0.6462 -0.0125477 0.00311521 0.00283319 -0.3575 -1.7167 -0.4742 5.24889e-007 -3.44082e-006 -3.64798e-006 -1.42 -1.8761 1.4223 5.24909e-007 -3.78283e-006 -3.64806e-006 -1.1471 -3.4929 2.6334 1.34791e-005 1.47241e-006 9.77685e-006 -0.823 -2.3 1.6571 2.9104e-006 -6.27132e-006 -3.96722e-006 -2.2603 21.606 7.4023 3.60567 19.0399 35.463 -13.5187 -1.1334 -5.0155 -26.2257 49.9512 -33.7461 0.0994 -28.0499 -0.2431 33.436 -77.6945 24.3524 -0.0679 -23.3996 -0.1402 11.6866 -6.20251 -4.07753 -0.7932 -9.0691 2.5189 6.97021e-006 6.1478e-006 2.538e-007 0.8272 -3.3923 0.5977 7.95139e-016 1.19271e-015 6.36111e-015 0.565 -2.3158 0.4082 7.95139e-016 -3.97569e-016 9.54166e-015 -0.916 -9.2044 0.2193 6.97021e-006 6.1478e-006 2.538e-007 -0.0117 -4.1944 -0.0248 0.0129519 0.00230518 -9.0169e-005 -0.0071 -2.3249 -0.0142 7.28849e-007 4.63161e-006 -2.93472e-006 -0.6113 -8.7231 -2.0637 6.97021e-006 6.1478e-006 2.538e-007 0.1927 -3.8059 -0.2383 0.0163443 0.00304235 -0.000881679 0.1091 -2.1688 -0.1362 -6.60702e-006 -1.68806e-005 -1.72147e-006 0.6151 -8.0947 -3.564 6.97021e-006 6.1478e-006 2.538e-007 0.4882 -2.341 -0.6462 0.0146186 0.00367838 -0.00328051 0.3574 -1.7166 -0.4742 3.64483e-007 -2.21863e-006 -1.46739e-006 1.4199 -1.8761 1.4221 6.97021e-006 6.1478e-006 2.538e-007 1.1472 -3.4929 2.6336 7.95139e-016 1.19271e-015 6.36111e-015 0.8229 -2.3 1.6571 7.95139e-016 -3.97569e-016 9.54166e-015 -9.412 3.9771 -0.7758 -38.5698 -31.091 -61.7856 -0.7531 -40.938 7.10543e-015 -84.1882 49.1556 107.956 0 -40.1986 5.32907e-015 16.7531 4.77805 -32.8417 -3.55271e-015 -4.4182 9.239 -5.25943e-006 1.2505e-005 2.42972e-006 9.4119 3.9773 -0.7758 1.41565 -0.733488 -1.22101 0.7532 -40.9383 -8.88178e-016 -1.42657 3.88352 1.21395 0 -40.1986 0 -16.9819 4.9564 30.0227 -4.44089e-016 -4.4182 9.239 -6.0931e-006 -1.97318e-006 -4.53513e-006 
